<svg width="507" height="575" viewBox="0 0 507 575" fill="none" xmlns="http://www.w3.org/2000/svg">
<g filter="url(#filter0_d_8531_1186)">
<path d="M446.317 195.486C446.317 195.486 451.411 233.842 453.151 250.802C454.891 267.762 443.798 285.547 387.237 277.787C337.72 270.994 377.156 154.664 377.156 154.664L417.48 145.33C417.48 145.33 430.388 140.885 442.025 154.832C453.662 168.779 446.308 195.486 446.308 195.486H446.317Z" fill="#2C8E51"/>
<mask id="mask0_8531_1186" style="mask-type:luminance" maskUnits="userSpaceOnUse" x="362" y="144" width="92" height="136">
<path d="M446.317 195.486C446.317 195.486 451.411 233.842 453.151 250.802C454.891 267.762 443.798 285.547 387.237 277.787C337.72 270.994 377.156 154.664 377.156 154.664L417.48 145.33C417.48 145.33 430.388 140.885 442.025 154.832C453.662 168.779 446.308 195.486 446.308 195.486H446.317Z" fill="white"/>
</mask>
<g mask="url(#mask0_8531_1186)">
<path d="M403.316 154.641C403.316 154.641 417.614 248.229 421.035 259.137C424.457 270.045 431.994 276.333 443.464 272.688C443.464 272.688 450.207 273.134 454.632 268.597" stroke="black" stroke-width="1.86" stroke-miterlimit="10"/>
<path d="M442.954 214.977L419.078 218.31L423.704 245.118C424.332 248.704 426.532 251.624 429.477 253.266C431.644 254.478 434.22 255 436.855 254.579C438.947 254.251 440.821 253.375 442.352 252.113C445.38 249.63 447.07 245.665 446.493 241.499L442.954 214.969V214.977Z" stroke="black" stroke-width="1.86" stroke-miterlimit="10"/>
<path d="M424.749 222.039C424.991 222.039 425.234 222.039 425.477 222.039C425.761 222.031 426.037 221.989 426.321 221.938C426.79 221.862 427.225 221.77 427.601 221.441C427.911 221.172 427.894 220.608 427.601 220.33C427.275 220.027 426.832 220.044 426.497 220.33C426.48 220.339 426.472 220.356 426.455 220.364L426.614 220.238C426.556 220.28 426.497 220.305 426.439 220.339L426.623 220.263C426.33 220.381 426.012 220.406 425.702 220.457L425.912 220.431C425.527 220.482 425.142 220.473 424.757 220.473C424.347 220.473 423.962 220.835 423.979 221.256C423.996 221.677 424.322 222.039 424.757 222.039H424.749Z" fill="black"/>
<path d="M432.103 220.838C432.931 220.796 433.734 220.585 434.554 220.467L434.345 220.493C434.42 220.484 434.504 220.476 434.579 220.467C434.788 220.442 434.972 220.392 435.131 220.24C435.265 220.105 435.365 219.878 435.357 219.685C435.349 219.491 435.282 219.272 435.131 219.129C434.989 218.994 434.78 218.877 434.579 218.902C433.868 218.978 433.165 219.146 432.454 219.247L432.663 219.222C432.479 219.247 432.287 219.264 432.103 219.272C431.693 219.289 431.308 219.617 431.325 220.055C431.341 220.459 431.668 220.863 432.103 220.838Z" fill="black"/>
<path d="M438.972 219.992C439.257 220.775 439.416 221.591 439.617 222.391C439.717 222.787 440.177 223.064 440.57 222.938C440.963 222.812 441.214 222.4 441.114 221.979C440.913 221.171 440.754 220.354 440.47 219.58C440.395 219.386 440.294 219.218 440.11 219.108C439.943 219.007 439.7 218.965 439.508 219.033C439.131 219.151 438.813 219.588 438.964 219.992H438.972Z" fill="black"/>
<path d="M440.444 228.585C440.578 229.217 440.779 229.823 440.871 230.462L440.846 230.252C440.862 230.395 440.879 230.538 440.879 230.681C440.896 231.094 441.231 231.481 441.657 231.464C442.084 231.447 442.452 231.119 442.435 230.681C442.41 229.814 442.134 228.998 441.95 228.164C441.866 227.76 441.381 227.491 440.996 227.617C440.578 227.752 440.361 228.148 440.453 228.577L440.444 228.585Z" fill="black"/>
<path d="M441.883 236.596C442.009 237.656 442.109 238.742 442.461 239.761C442.594 240.148 442.996 240.442 443.414 240.308C443.791 240.181 444.1 239.761 443.958 239.348C443.799 238.877 443.69 238.397 443.607 237.909C443.59 237.791 443.573 237.673 443.548 237.555C443.548 237.505 443.498 237.261 443.54 237.496C443.531 237.446 443.523 237.387 443.523 237.336C443.49 237.092 443.464 236.84 443.431 236.596C443.406 236.385 443.364 236.2 443.205 236.04C443.071 235.906 442.845 235.805 442.653 235.813C442.268 235.83 441.825 236.158 441.875 236.596H441.883Z" fill="black"/>
<path d="M442.008 245.453C441.916 245.95 441.908 246.489 441.716 246.952L441.791 246.766C441.732 246.901 441.657 247.019 441.573 247.128L441.699 246.968C441.632 247.061 441.557 247.145 441.473 247.229C441.197 247.532 441.155 248.046 441.473 248.34C441.774 248.618 442.276 248.66 442.577 248.34C442.912 247.978 443.188 247.591 443.305 247.103C443.406 246.699 443.439 246.278 443.506 245.874C443.548 245.664 443.539 245.462 443.431 245.268C443.339 245.108 443.155 244.948 442.962 244.906C442.761 244.864 442.535 244.873 442.36 244.982C442.201 245.083 442.042 245.251 442 245.453H442.008Z" fill="black"/>
<path d="M434.673 251.793C435.057 251.793 435.442 251.844 435.827 251.827C436.379 251.802 436.923 251.675 437.341 251.288C437.642 251.011 437.642 250.463 437.341 250.177C437.023 249.883 436.555 249.874 436.237 250.177C436.212 250.202 436.187 250.219 436.162 250.245L436.321 250.118C436.254 250.169 436.178 250.211 436.103 250.245L436.287 250.169C436.162 250.219 436.028 250.253 435.894 250.27L436.103 250.245C435.626 250.304 435.158 250.236 434.681 250.228C434.271 250.228 433.886 250.59 433.903 251.011C433.92 251.431 434.246 251.793 434.681 251.793H434.673Z" fill="black"/>
<path d="M427.384 246.881C427.669 247.378 427.928 247.9 428.33 248.321C428.472 248.472 428.631 248.615 428.781 248.75C429.066 248.994 429.401 249.221 429.802 249.213C430.003 249.213 430.204 249.129 430.354 248.986C430.488 248.851 430.588 248.624 430.58 248.43C430.563 248.018 430.237 247.639 429.802 247.647C429.777 247.647 429.76 247.647 429.744 247.647L429.953 247.673C429.953 247.673 429.877 247.656 429.844 247.639L430.028 247.715C429.953 247.681 429.877 247.639 429.81 247.58L429.969 247.706C429.844 247.605 429.727 247.496 429.61 247.378C429.484 247.252 429.35 247.134 429.242 246.991L429.367 247.151C429.116 246.823 428.932 246.444 428.731 246.09C428.631 245.922 428.455 245.779 428.263 245.728C428.07 245.678 427.828 245.703 427.66 245.804C427.301 246.04 427.167 246.494 427.384 246.873V246.881Z" fill="black"/>
<path d="M425.535 237.611C425.652 238.613 425.752 239.64 426.112 240.591C426.187 240.785 426.288 240.953 426.472 241.062C426.639 241.163 426.882 241.205 427.074 241.138C427.442 241.02 427.768 240.583 427.618 240.179C427.383 239.547 427.258 238.891 427.166 238.226L427.191 238.436C427.158 238.158 427.124 237.889 427.091 237.611C427.066 237.401 427.024 237.216 426.865 237.056C426.731 236.921 426.505 236.82 426.313 236.829C426.12 236.837 425.903 236.904 425.761 237.056C425.627 237.199 425.51 237.409 425.535 237.611Z" fill="black"/>
<path d="M424.064 228.003C424.164 228.844 424.298 229.686 424.457 230.519C424.491 230.704 424.658 230.898 424.817 230.991C424.984 231.092 425.227 231.134 425.419 231.066C425.612 230.999 425.787 230.89 425.888 230.704C425.988 230.511 426.005 230.317 425.963 230.098C425.846 229.467 425.729 228.827 425.645 228.188L425.67 228.398C425.653 228.264 425.637 228.129 425.62 227.994C425.595 227.775 425.553 227.599 425.394 227.439C425.26 227.304 425.034 227.203 424.842 227.211C424.65 227.22 424.432 227.287 424.29 227.439C424.156 227.582 424.039 227.792 424.064 227.994V228.003Z" fill="black"/>
</g>
<path d="M325.665 147.855C325.665 147.855 325.004 133.395 372.948 126.366C414.719 120.239 446.509 138.083 452.683 164.049C458.857 190.015 448.642 194.215 446.325 195.486C446.325 195.486 444.4 172.946 439.122 165.093C433.843 157.24 423.252 154.134 412.309 158.586C402.362 162.627 399.451 171.38 377.817 174.377C356.183 177.365 326.443 180.512 325.673 147.863L325.665 147.855Z" fill="#72BC59"/>
<mask id="mask1_8531_1186" style="mask-type:luminance" maskUnits="userSpaceOnUse" x="325" y="125" width="130" height="71">
<path d="M325.665 147.855C325.665 147.855 325.004 133.395 372.948 126.366C414.719 120.239 446.509 138.083 452.683 164.049C458.857 190.015 448.642 194.215 446.325 195.486C446.325 195.486 444.4 172.946 439.122 165.093C433.843 157.24 423.252 154.134 412.309 158.586C402.362 162.627 399.451 171.38 377.817 174.377C356.183 177.365 326.443 180.512 325.673 147.863L325.665 147.855Z" fill="white"/>
</mask>
<g mask="url(#mask1_8531_1186)">
<path d="M398.02 154.934C398.02 154.934 417.98 139.497 436.745 152.585C452.841 163.805 451.126 192.574 449.494 203.743" stroke="black" stroke-width="1.86" stroke-miterlimit="10"/>
</g>
<path d="M313.558 122.731L316.796 141.332L306.564 143.403C306.564 143.403 310.722 159.302 329.621 159.302C348.519 159.302 353.405 139.506 353.405 139.506L343.073 138.832L338.221 111.469C338.221 111.469 320.51 124.279 313.567 122.722L313.558 122.731Z" fill="#FFBC8A"/>
<path d="M314.478 128.014C314.478 128.014 318.544 133.51 327.454 131.835C336.363 130.152 339.601 119.294 339.601 119.294L337.903 109.977L312.562 121.062L314.487 128.014H314.478Z" fill="black"/>
<path d="M97.2683 344.79C97.2683 344.79 95.5868 357.92 103.3 379.737C112.737 406.427 123.93 409.71 123.93 409.71C123.93 409.71 138.913 403.885 130.188 380.023C121.462 356.153 112.77 341.356 97.2683 344.79Z" fill="black"/>
<path d="M429.616 320.673C416.9 301.482 395.417 291.416 395.417 291.416L393.593 280.053C393.593 280.053 358.373 250.425 315.364 252.967C272.356 255.509 275.736 276.661 275.736 276.661L262.509 281.846L129.309 332.575C129.309 332.575 124.867 330.134 121.303 331.253C117.739 332.373 116.032 335.276 116.032 335.276C116.032 335.276 114.175 332.625 110.603 333.871C107.039 335.116 107.349 338.71 107.349 338.71C107.349 338.71 105.182 336.371 101.15 338.088C97.1173 339.805 97.2762 344.779 97.2762 344.779C104.939 350.435 114.619 363.128 118.96 374.575C125.603 392.065 123.938 409.699 123.938 409.699L304.305 338.113C329.31 342.414 354.157 343.777 354.157 343.777L336.94 367.976C336.94 367.976 403.239 390.466 413.947 381.511C424.655 372.555 446.172 345.638 429.625 320.673H429.616Z" fill="#0F77F5"/>
<path d="M395.427 291.425C395.427 291.425 350.929 310.834 272.893 288.227" stroke="black" stroke-width="1.86" stroke-miterlimit="10"/>
<path d="M107.35 338.719C107.35 338.719 120.275 348.112 130.372 369.062" stroke="black" stroke-width="1.86" stroke-miterlimit="10"/>
<path d="M116.033 335.281C116.033 335.281 123.119 340.163 128.482 349.051" stroke="black" stroke-width="1.86" stroke-miterlimit="10"/>
<path d="M108.338 356.323L89.7492 364.126C89.7492 364.126 80.4129 338.311 56.8632 346.324C56.8632 346.324 55.349 348.007 56.5369 360.776C57.7249 373.544 76.2635 427.16 76.2635 427.16L123.94 409.695C123.94 409.695 125.647 395.344 120.669 379.722C115.566 363.713 108.338 356.315 108.338 356.315V356.323Z" fill="#FF5485"/>
<mask id="mask2_8531_1186" style="mask-type:luminance" maskUnits="userSpaceOnUse" x="56" y="344" width="69" height="84">
<path d="M108.338 356.323L89.7492 364.126C89.7492 364.126 80.4129 338.311 56.8632 346.324C56.8632 346.324 55.349 348.007 56.5369 360.776C57.7249 373.544 76.2635 427.16 76.2635 427.16L123.94 409.695C123.94 409.695 125.647 395.344 120.669 379.722C115.566 363.713 108.338 356.315 108.338 356.315V356.323Z" fill="white"/>
</mask>
<g mask="url(#mask2_8531_1186)">
<path d="M80.5288 435.785C88.5516 416.232 84.8874 395.342 78.8891 372.338C72.8824 349.335 62.9522 342.172 62.9522 342.172L35.1777 345.959L57.9411 440.33L80.5371 435.793L80.5288 435.785Z" stroke="black" stroke-width="1.86" stroke-miterlimit="10"/>
<path d="M85.5998 411.717C88.896 410.134 93.0036 409.814 96.5507 410.614C99.8134 411.355 102.8 413.181 104.691 416.001C105.678 417.482 106.355 419.182 106.531 420.967C106.623 421.96 108.188 421.968 108.087 420.967C107.736 417.322 105.753 414.065 102.892 411.851C99.7548 409.427 95.6974 408.468 91.7905 408.687C89.3979 408.821 86.9969 409.326 84.8218 410.37C83.9183 410.808 84.7047 412.154 85.6082 411.725L85.5998 411.717Z" fill="black"/>
<path d="M87.1882 357.701C87.138 357.844 87.0879 357.978 87.0293 358.121C87.0126 358.172 87.0126 358.172 87.0293 358.121C87.0126 358.155 86.9958 358.197 86.9791 358.231C86.954 358.29 86.9205 358.357 86.8954 358.416C86.77 358.685 86.6277 358.946 86.4771 359.207C86.3266 359.468 86.1592 359.712 85.9836 359.948C85.8664 360.108 85.6908 360.327 85.49 360.545C84.6785 361.446 83.8587 362.061 82.7544 362.591C82.3779 362.776 82.2775 363.315 82.4783 363.66C82.7042 364.047 83.1643 364.123 83.5407 363.937C85.9417 362.784 87.7989 360.638 88.669 358.113C88.8112 357.717 88.51 357.254 88.1252 357.153C87.6986 357.036 87.3054 357.297 87.1715 357.701H87.1882Z" fill="black"/>
<path d="M90.3661 360.886C88.9857 364.093 87.505 367.603 84.6606 369.783C84.326 370.036 84.1503 370.456 84.3845 370.852C84.5769 371.18 85.1124 371.391 85.447 371.13C88.5507 368.748 90.1988 365.187 91.713 361.669C91.8803 361.282 91.8301 360.827 91.4369 360.6C91.1106 360.407 90.5418 360.491 90.3744 360.878L90.3661 360.886Z" fill="black"/>
<path d="M92.9609 360.089C93.9816 363.725 93.3458 367.673 91.2627 370.812C90.7022 371.654 92.0491 372.437 92.6096 371.604C94.9185 368.127 95.5962 363.692 94.4668 359.677C94.1907 358.709 92.6932 359.121 92.9693 360.089H92.9609Z" fill="black"/>
</g>
<path d="M75.0161 384.935C79.9687 407.392 79.8683 426.524 74.7902 427.66C69.7122 428.796 61.5806 411.508 56.628 389.043C51.6755 366.587 51.7759 347.455 56.8539 346.319C61.932 345.182 70.0635 362.471 75.0161 384.935Z" fill="#FFA9C3"/>
<mask id="mask3_8531_1186" style="mask-type:luminance" maskUnits="userSpaceOnUse" x="52" y="346" width="27" height="82">
<path d="M75.0161 384.935C79.9687 407.392 79.8683 426.524 74.7902 427.66C69.7122 428.796 61.5806 411.508 56.628 389.043C51.6755 366.587 51.7759 347.455 56.8539 346.319C61.932 345.182 70.0635 362.471 75.0161 384.935Z" fill="white"/>
</mask>
<g mask="url(#mask3_8531_1186)">
<path d="M46.2207 345.945L83.482 368.646" stroke="black" stroke-width="1.86" stroke-miterlimit="10"/>
<path d="M45.2656 353.57L82.5269 376.271" stroke="black" stroke-width="1.86" stroke-miterlimit="10"/>
<path d="M44.3223 361.203L81.5836 383.895" stroke="black" stroke-width="1.86" stroke-miterlimit="10"/>
<path d="M43.3672 368.828L80.6285 391.52" stroke="black" stroke-width="1.86" stroke-miterlimit="10"/>
<path d="M42.4141 376.453L79.6837 399.154" stroke="black" stroke-width="1.86" stroke-miterlimit="10"/>
<path d="M43.3672 385.188L80.6285 407.88" stroke="black" stroke-width="1.86" stroke-miterlimit="10"/>
<path d="M44.3223 394.164L81.5836 416.856" stroke="black" stroke-width="1.86" stroke-miterlimit="10"/>
<path d="M43.3672 401.648L80.6285 424.349" stroke="black" stroke-width="1.86" stroke-miterlimit="10"/>
</g>
<path d="M309.325 142.858C309.325 142.858 302.406 144.382 294.367 145.56C286.486 146.722 266.316 149.785 266.316 149.785L281.609 221.531L351.271 286.409C351.271 286.409 372.437 288.513 393.594 280.063C393.594 280.063 383.906 249.602 381.756 222.533C379.606 195.464 406.143 183.916 406.143 183.916C406.143 183.916 411.798 164.869 400.42 153.927C386.458 140.493 353.396 139.5 353.396 139.5C353.396 139.5 345.951 156.241 331.026 156.847C313.55 157.563 309.317 142.85 309.317 142.85L309.325 142.858Z" fill="#FF5485"/>
<path d="M299.654 146.227C299.654 146.227 305.176 166.823 328.466 166.553C351.757 166.284 362.272 146.227 362.272 146.227" stroke="black" stroke-width="1.86" stroke-miterlimit="10"/>
<path d="M312.93 142.104C312.93 142.104 289.464 181.276 309.132 218.058H290.175C290.175 218.058 281.466 198.666 283.817 175.982C286.168 153.299 293.906 144.141 300.632 141.599C308.362 138.678 312.93 142.112 312.93 142.112V142.104Z" fill="#2C8E51"/>
<path d="M367.933 140.658C367.933 140.658 364.629 133.975 354.565 137.586C348.098 139.901 339.724 156.229 344.091 186.682C347.964 213.667 366.076 230.896 384.665 236.072L392.989 220.855C392.989 220.855 369.356 215.468 362.864 189.375C356.69 164.587 367.933 140.667 367.933 140.667V140.658Z" fill="#2C8E51"/>
<mask id="mask4_8531_1186" style="mask-type:luminance" maskUnits="userSpaceOnUse" x="283" y="140" width="30" height="79">
<path d="M312.93 142.104C312.93 142.104 289.464 181.276 309.132 218.058H290.175C290.175 218.058 281.466 198.666 283.817 175.982C286.168 153.299 293.906 144.141 300.632 141.599C308.362 138.678 312.93 142.112 312.93 142.112V142.104Z" fill="white"/>
</mask>
<g mask="url(#mask4_8531_1186)">
<path d="M305.434 136.516C305.434 136.516 290.543 149.335 289.254 180.713C287.966 212.091 297.67 230.853 298.172 231.391" stroke="black" stroke-width="1.86" stroke-miterlimit="10"/>
<path d="M309.181 136.516C309.181 136.516 295.553 155.378 294.808 177.986C294.064 200.602 304.295 227.031 304.295 227.031" stroke="black" stroke-width="1.86" stroke-miterlimit="10"/>
</g>
<mask id="mask5_8531_1186" style="mask-type:luminance" maskUnits="userSpaceOnUse" x="342" y="136" width="51" height="101">
<path d="M367.933 140.658C367.933 140.658 364.629 133.975 354.565 137.586C348.098 139.901 339.724 156.229 344.091 186.682C347.964 213.667 366.076 230.896 384.665 236.072L392.989 220.855C392.989 220.855 369.356 215.468 362.864 189.375C356.69 164.587 367.933 140.667 367.933 140.667V140.658Z" fill="white"/>
</mask>
<g mask="url(#mask5_8531_1186)">
<path d="M358.539 135.383C358.539 135.383 340.268 162.014 351.319 195.488C362.37 228.962 392.269 232.758 392.269 232.758" stroke="black" stroke-width="1.86" stroke-miterlimit="10"/>
<path d="M365.584 135.383C365.584 135.383 351.596 160.768 357.452 188.62C363.308 216.472 381.947 221.858 395.433 228.129" stroke="black" stroke-width="1.86" stroke-miterlimit="10"/>
</g>
<path d="M281.978 64.9433C281.978 64.9433 304.808 60.2887 311.551 58.8578C318.294 57.4269 343.935 73.1245 343.935 73.1245L351.431 92.1805C352.719 98.9224 349.339 106.119 351.514 112.625C350.192 112.305 349.005 111.447 348.277 110.285C347.917 112.482 347.858 114.729 348.101 116.935C346.871 117.002 345.625 116.615 344.638 115.874C344.579 116.598 344.529 117.322 344.47 118.046C344.453 118.307 344.428 118.568 344.311 118.795C344.052 119.3 343.374 119.477 342.822 119.325C342.27 119.174 341.827 118.778 341.425 118.366C340.112 117.027 339.049 115.453 338.288 113.736L291.849 92.534C285.324 85.3964 281.643 75.7001 281.785 66.0038L281.969 64.9264L281.978 64.9433Z" fill="black"/>
<path d="M306.943 48.2278C306.943 48.2278 291.817 51.6619 287.919 64.8512C284.02 78.049 289.249 86.6679 289.96 94.4536C290.328 98.4853 288.998 102.492 289.107 106.523C289.274 112.853 292.562 117.642 297.247 121.64C304.926 128.197 315.124 129.106 324.711 127.069C334.976 124.889 342.531 119.031 345.601 108.695C348.838 97.8035 348.529 85.6074 346.546 74.5223C345.275 67.4099 345.015 58.4543 339.151 53.3873C330.819 46.1824 317.174 45.9047 306.943 48.2278Z" fill="#FFBC8A"/>
<path d="M304.642 94.2707C305.102 96.8968 304.14 99.2704 302.508 99.5566C300.869 99.8427 299.179 97.9489 298.719 95.3144C298.258 92.6884 299.221 90.3148 300.852 90.0286C302.492 89.7424 304.181 91.6362 304.642 94.2707Z" fill="black"/>
<path d="M325.548 91.1926C326.008 93.8187 325.046 96.1923 323.415 96.4784C321.775 96.7646 320.085 94.8708 319.625 92.2363C319.165 89.6018 320.127 87.2366 321.758 86.9505C323.398 86.6643 325.088 88.5581 325.548 91.1926Z" fill="black"/>
<path d="M310.673 89.8325C310.781 91.5832 310.965 93.3339 310.974 95.0931C310.974 96.6586 310.907 98.2578 310.154 99.6719C309.485 100.926 308.723 102.214 309.259 103.67C309.711 104.899 310.798 105.715 311.986 106.17C313.567 106.767 315.433 106.599 316.972 105.976C317.365 105.816 317.633 105.454 317.516 105.017C317.415 104.646 316.947 104.31 316.562 104.47C315.106 105.059 313.35 105.235 311.936 104.427C311.392 104.116 310.89 103.678 310.706 103.064C310.48 102.323 310.865 101.608 311.216 100.985C311.626 100.244 312.011 99.4951 312.22 98.6703C312.446 97.7781 312.513 96.8354 312.538 95.9179C312.597 93.881 312.371 91.861 312.245 89.8325C312.178 88.8309 310.622 88.8225 310.689 89.8325H310.673Z" fill="black"/>
<path d="M306.891 111.124C308.363 113.574 310.957 115.139 313.767 115.425C316.578 115.711 319.314 114.466 321.104 112.345C322.117 111.141 322.844 109.702 323.112 108.136C323.279 107.151 321.782 106.731 321.615 107.724C321.104 110.678 318.812 113.153 315.876 113.767C312.939 114.382 309.76 112.883 308.229 110.325C307.711 109.466 306.364 110.249 306.882 111.116L306.891 111.124Z" fill="black"/>
<path d="M323.523 83.4973C322.327 83.5393 321.139 83.6908 320.027 84.1033C319.516 84.2969 319.014 84.541 318.471 84.642C317.935 84.743 317.324 84.6672 316.931 84.28C316.555 83.9181 316.354 83.3878 316.446 82.866C316.806 80.9638 319.433 80.2399 321.056 80.0884C322.31 79.9706 323.599 79.979 324.837 80.2399C325.799 80.4419 327.372 81.0143 327.029 82.3273C326.895 82.8323 326.426 83.1942 325.933 83.3458C325.439 83.4973 324.904 83.4888 324.385 83.4804C324.101 83.4804 323.808 83.4804 323.523 83.4888V83.4973Z" fill="black"/>
<path d="M298.727 87.7069C299.873 87.3702 301.052 87.143 302.24 87.1935C302.784 87.2187 303.336 87.2945 303.88 87.2187C304.424 87.143 304.976 86.882 305.235 86.3939C305.478 85.9309 305.511 85.367 305.26 84.9041C304.332 83.2038 301.605 83.3469 300.023 83.7004C298.794 83.9782 297.572 84.3906 296.476 85.0303C295.623 85.5269 294.301 86.5538 295.037 87.6985C295.322 88.1362 295.874 88.3298 296.393 88.3213C296.911 88.3129 297.413 88.1362 297.907 87.9678C298.183 87.8752 298.451 87.7911 298.735 87.7069H298.727Z" fill="black"/>
<path d="M327.37 64.8517C327.294 66.8886 327.06 70.7267 325.069 74.7248C326.659 74.5985 331.553 71.4842 332.598 70.2722C332.598 70.2722 333.995 81.5677 334.581 87.4091C335.167 93.2504 334.431 96.937 338.245 96.937C342.06 96.937 341.274 91.062 342.253 85.7341C343.231 80.4062 352.032 83.209 352.032 83.209L352.417 84.3706C354.784 80.6166 356.5 76.4671 357.537 72.1492C359.059 73.075 360.791 73.6474 362.573 73.7905C360.256 67.8397 362.816 60.3318 359.026 55.2059C361.059 55.8372 363.368 55.4837 365.125 54.28C362.607 51.5614 360.423 48.5144 358.658 45.2487C357.386 42.9088 356.307 40.4089 354.542 38.4225C352.777 36.4277 350.108 34.9884 347.506 35.5439C348.368 33.002 349.221 30.4517 350.083 27.9098C347.657 28.4401 345.44 29.8625 343.942 31.8489C343.474 29.9299 342.989 27.9771 341.993 26.2685C340.998 24.5598 339.417 23.0953 337.484 22.7334C337.76 24.9049 337.919 27.0933 337.978 29.2817C336.79 27.8677 334.882 26.6809 332.029 26.1759C324.333 24.8124 316.645 23.4656 309.275 20.7891C310.521 22.2199 312.688 24.4504 314.746 26.218C312.612 26.3779 310.488 26.6557 308.379 27.0597C305.142 27.6741 301.946 28.5663 298.658 28.7767C295.429 28.9872 292.158 28.5158 289.113 27.4132C289.707 28.9787 290.912 30.2918 292.392 31.0577C288.628 32.9599 285.231 35.6786 281.19 36.8907C278.011 37.8502 274.548 37.7997 271.402 36.756C272.766 39.1043 274.774 41.0655 277.133 42.3869C275.134 43.8178 273.527 45.9894 271.545 47.5297C269.319 49.2635 266.567 50.2147 263.781 50.585C266.433 53.1017 269.955 54.6588 273.586 54.9618C271.595 58.2276 267.939 59.2376 265.831 63.4208C268.207 62.8737 270.566 64.1363 272.883 64.8854C272.883 64.8854 276.773 65.5251 279.676 64.9359C278.371 66.9812 275.201 71.9135 273.394 73.5211C280.245 76.7027 287.13 77.3845 292.476 72.9572C291.765 74.8426 291.171 76.7785 290.694 78.7481C292.878 76.3071 296.492 76.0126 299.629 75.0867C302.398 74.2702 304.991 72.8394 307.166 70.9203C306.639 73.4959 305.652 75.9705 304.263 78.1925C307.041 75.8863 309.525 74.7164 312.554 72.7468C317.147 69.7588 318.377 67.562 318.477 67.0906C318.586 68.8245 316.586 73.7063 315.867 75.2887C318.845 72.1576 325.646 68.8245 327.361 64.8433" fill="black"/>
<path d="M345.616 97.6461C355.881 95.727 358.198 83.068 350.426 80.9974C342.655 78.9268 341.918 87.4111 341.918 87.4111L341.734 89.9278" fill="#FFBC8A"/>
<path d="M345.616 97.6461C355.881 95.727 358.198 83.068 350.426 80.9974C342.655 78.9268 341.918 87.4111 341.918 87.4111L341.734 89.9278" stroke="black" stroke-width="1.86" stroke-miterlimit="10"/>
<path d="M346.368 88.0267C346.627 87.2271 346.878 86.3854 347.472 85.7626C347.941 85.266 348.585 84.8704 349.246 84.8031C349.865 84.7357 350.434 84.9293 350.869 85.3754C351.07 85.5774 351.262 85.8552 351.337 86.0824C351.438 86.377 351.454 86.638 351.404 86.8905C351.312 87.3029 351.53 87.7406 351.948 87.85C352.341 87.9594 352.81 87.7153 352.902 87.3029C353.378 85.1734 351.505 83.1449 349.38 83.2291C348.3 83.2712 347.28 83.7678 346.51 84.5085C345.64 85.3502 345.23 86.478 344.87 87.6059C344.745 88.0099 345.021 88.456 345.414 88.5654C345.833 88.6833 346.242 88.4223 346.368 88.0183V88.0267Z" fill="black"/>
<path d="M347.983 84.6774C349.255 86.992 347.925 89.6433 346.427 91.4782C346.159 91.8065 346.109 92.2694 346.427 92.5893C346.703 92.867 347.264 92.9175 347.531 92.5893C348.527 91.3688 349.414 90.0137 349.815 88.465C350.217 86.9163 350.1 85.2834 349.33 83.8862C348.845 83.0024 347.498 83.7936 347.983 84.6774Z" fill="black"/>
<path d="M246.841 427.793C313.263 427.793 367.108 373.618 367.108 306.791C367.108 239.963 313.263 185.789 246.841 185.789C180.42 185.789 126.574 239.963 126.574 306.791C126.574 373.618 180.42 427.793 246.841 427.793Z" fill="#49B8FF"/>
<mask id="mask6_8531_1186" style="mask-type:luminance" maskUnits="userSpaceOnUse" x="126" y="185" width="242" height="243">
<path d="M246.841 427.793C313.263 427.793 367.108 373.618 367.108 306.791C367.108 239.963 313.263 185.789 246.841 185.789C180.42 185.789 126.574 239.963 126.574 306.791C126.574 373.618 180.42 427.793 246.841 427.793Z" fill="white"/>
</mask>
<g mask="url(#mask6_8531_1186)">
<path d="M331.402 305.383C331.694 303.784 332.213 301.856 332.18 300.249C332.163 299.07 331.494 298.06 331.201 296.974C330.967 296.107 330.272 295.535 329.503 295.013C328.49 294.34 326.943 294.735 327.394 292.926C327.687 291.731 328.223 290.552 328.85 289.517C329.386 288.625 329.636 287.968 329.519 286.866C329.394 285.62 328.867 284.543 328.181 283.516C327.461 282.447 326.198 280.747 324.952 280.326C324.107 280.04 322.751 279.863 321.89 279.922C321.229 279.964 320.551 280.199 319.882 280.275C319.405 280.334 318.694 280.679 318.217 280.561C317.841 280.469 317.531 280.115 317.13 280.014C316.41 279.821 315.699 280.09 314.996 279.972C313.541 279.737 312.361 278.71 310.981 278.331C309.467 277.918 307.785 278.255 306.304 277.548C305.083 276.967 304.02 275.966 302.774 275.427C300.063 274.257 296.592 275.166 293.797 275.276C291.396 275.368 288.786 276.1 286.36 275.553C285.482 275.351 284.436 274.762 283.792 274.139C283.315 273.676 283.047 273.138 282.504 272.708C281.642 272.027 280.738 271.32 279.835 270.705C278.672 269.914 277.551 269.417 277.032 268.003C276.564 266.749 276.94 265.445 277.509 264.283C278.187 262.911 278.647 262.305 278.27 260.798C277.911 259.384 277.099 258.492 276.355 257.255C275.878 256.464 275.267 255.521 275.25 254.578C275.225 253.248 276.112 251.826 276.212 250.471C276.304 249.065 275.602 247.971 276.388 246.734C276.781 246.119 277.283 245.606 277.702 245.017C277.978 244.554 278.279 244.108 278.605 243.678C278.94 243.468 279.224 243.207 279.458 242.896C279.985 241.961 279.55 240.665 279.258 239.731C278.747 238.081 278.839 237.08 279.425 235.421C280.211 233.208 281.617 231.566 282.805 229.639C283.541 228.461 283.641 227.787 283.139 226.466C282.855 225.717 282.562 224.799 282.453 223.983C282.37 223.368 282.696 222.788 282.663 222.19C282.637 221.752 282.504 221.34 282.47 220.902C282.395 219.833 282.227 218.2 282.796 217.283C283.223 216.593 283.968 216.172 284.486 215.574C286 213.807 284.955 210.44 284.503 208.546C284.068 206.711 283.549 204.885 282.863 203.126C283.725 201.956 284.905 201.198 286.293 200.474C286.837 200.188 287.381 199.759 287.941 199.633C288.703 199.464 289.606 199.515 290.049 198.648C290.894 196.973 290.694 194.768 291.338 193C291.647 192.158 291.756 190.736 292.743 190.357C293.613 190.029 294.709 190.214 295.579 189.776C296.458 189.33 297.378 188.674 298.072 187.967C298.792 187.226 298.783 186.351 299.244 185.433C299.737 184.465 300.289 183.607 300.858 182.672C301.327 181.907 302.498 181.031 302.113 180.215C301.778 179.516 300.883 179.045 300.532 178.321C300.013 177.235 300.791 176.023 301.268 175.055C301.787 173.995 302.222 172.875 303.008 171.975C303.435 171.478 303.861 171.167 303.987 170.485C304.087 169.963 303.995 169.374 303.995 168.835C303.995 167.396 303.795 166.36 303.008 165.14C302.757 164.753 302.247 164.416 302.063 164.004C301.787 163.364 302.105 162.758 301.343 162.32L205.296 167.648C205.605 168.061 205.898 167.867 206.291 168.035C206.668 168.204 207.01 168.641 207.22 168.978C207.554 169.508 208.023 170.333 207.973 170.964C207.83 172.698 206.467 174.71 205.471 176.057C204.71 177.092 203.965 177.631 203.957 178.969C203.957 179.626 203.932 179.785 204.275 180.299C204.584 180.762 205.045 180.947 205.245 181.536C206.149 184.255 203.698 184.549 201.974 185.534C201.297 185.921 200.494 186.856 200.301 187.63C200.151 188.261 200.452 188.968 200.276 189.625C200.084 190.357 199.389 191.569 198.937 192.217C198.201 193.261 196.771 194.389 196.394 195.651C196.227 196.224 196.352 197.04 196.352 197.621C196.352 198.547 196.051 200.298 196.804 201.005C197.54 201.686 199.214 201.265 199.983 200.962C201.138 200.508 202.434 199.725 202.66 201.35C202.844 202.671 202.61 203.816 202.05 204.969C201.656 205.777 201.213 206.644 201.38 207.544C201.523 208.277 201.774 209.278 202.543 209.581C203.028 209.775 203.522 209.464 203.982 209.581C204.676 209.767 204.911 210.465 205.296 211.038C205.639 211.559 205.873 211.728 205.898 212.342C205.915 212.738 205.613 213.798 205.538 214.202C205.362 215.12 204.86 216.18 206.14 216.307C207.01 216.391 207.738 215.692 208.592 215.591C209.135 215.532 209.621 215.625 210.173 215.532C210.825 215.423 211.311 215.271 211.997 215.271C213.101 215.271 214.13 215.726 215.226 215.616C216.573 215.49 217.392 215.389 218.564 216.323C219.593 217.14 219.317 218.057 219.927 219.025C220.647 220.161 222.462 219.429 223.508 218.933C223.817 218.79 224.436 218.268 224.788 218.335C225.44 218.47 225.474 219.404 225.591 219.901C225.767 220.683 225.909 221.466 225.85 222.274C225.808 222.855 225.516 223.368 225.474 223.932C225.373 225.178 226.561 225.683 227.473 226.247C228.82 227.08 230.259 227.745 231.639 228.519C232.66 229.1 234.241 229.437 235.438 229.269C236.575 229.1 237.203 228.09 237.755 227.105C238.248 226.239 238.181 224.951 239.135 224.454C240.265 223.873 241.762 225.069 242.716 225.565C243.402 225.919 243.695 226.382 244.272 226.853C244.841 227.316 245.226 227.257 245.92 227.249C247.191 227.24 248.388 226.878 249.668 226.895C251.082 226.912 249.509 226.954 250.663 227.905C251.232 228.368 250.446 229.74 251.115 230.068C251.868 230.43 250.58 232.273 251.115 232.947C252.395 234.546 253.926 234.142 253.34 235.985C253.006 237.046 256.31 237.248 255.867 238.249C255.49 239.108 254.947 240.126 254.938 241.069C254.938 243.67 257.481 245.934 258.945 247.828C259.623 248.703 260.175 249.335 260.033 250.488C259.891 251.59 259.447 252.508 259.673 253.661C259.966 255.134 261.045 255.521 261.915 256.598C262.827 257.726 262.066 258.56 262.693 259.889C263.086 260.731 263.22 262.499 263.137 263.349C263.003 264.763 263.438 264.729 264.224 265.621C264.801 266.278 265.956 266.842 266.45 267.566C266.734 267.978 266.324 269.367 266.349 269.922C266.383 271.017 266.525 272.043 266.416 273.146C266.24 274.872 267.763 273.887 268.064 274.914C268.499 276.378 268.022 277.06 266.993 277.935C265.329 279.358 266.341 279.745 264.241 280.309C263.471 280.519 262.718 280.444 261.949 280.629C260.778 280.906 259.481 281.571 258.527 282.304C257.808 282.851 256.954 283.676 256.544 284.517C255.967 285.713 256.109 286.647 254.997 287.564C254.152 288.254 253.282 288.204 252.286 288.541C250.898 289.012 249.684 289.955 248.764 291.066C247.635 292.429 244.841 293.532 245.016 295.602C245.251 298.405 247.702 298.414 249.684 299.457C250.663 299.979 252.119 301.351 252.345 302.538C252.52 303.506 251.993 304.508 251.659 305.374C251.224 306.502 250.764 307.958 251.241 309.137C251.642 310.13 252.437 310.256 253.223 310.93C253.909 311.519 254.47 312.074 255.248 312.563C255.867 312.95 256.377 313.16 256.603 313.943C256.954 315.147 256.034 316.291 256.026 317.47C256.026 318.261 256.268 319.725 256.544 320.491C257.272 322.503 258.987 323.69 259.941 325.533C260.393 326.408 260.711 327.376 261.171 328.235C261.455 328.774 261.731 328.816 262.183 329.211C262.769 329.716 263.103 330.289 263.588 330.895C264.233 331.703 264.835 332.57 265.646 333.218C266.45 333.849 267.119 334.354 267.73 335.204C268.416 336.155 268.441 337.376 269.194 338.243C269.562 338.663 270.172 339.076 270.691 339.261C271.645 339.598 272.565 339.076 273.552 339.185C274.405 339.278 275.51 339.749 275.853 340.54C276.229 341.407 276.53 342.325 276.756 343.242C276.982 344.16 277.359 345.044 277.501 345.969C277.668 347.055 277.852 347.897 278.455 348.882C279.509 350.599 282.545 350.86 283.056 353.006C283.382 354.378 282.939 355.565 282.78 356.886C282.621 358.199 283.123 358.578 284.034 359.462C285.775 361.17 287.389 362.854 288.719 364.84C288.895 366.077 288.979 367.323 288.82 368.569C288.585 370.421 288.192 372.399 288.217 374.276C288.242 376.018 288.728 377.928 289.891 379.267C290.652 380.142 291.698 380.63 292.467 381.489C293.095 382.187 293.622 383.113 294.115 383.913C294.918 385.201 295.153 387.128 295.512 388.576C296.131 391.05 296.332 393.079 298.231 394.914C299.177 395.831 300.381 396.463 301.519 397.102C302.105 397.439 302.632 397.885 303.242 398.18C303.778 398.432 304.23 398.525 304.723 398.895C305.317 399.333 306.028 399.964 306.38 400.621C306.664 401.142 306.689 401.934 306.856 402.506C307.066 403.196 307.283 403.895 307.509 404.576C307.869 405.645 308.312 406.336 309.433 405.536C310.061 405.081 310.236 404.492 310.738 403.97C311.148 403.533 311.725 403.331 312.093 402.859C313.306 401.285 314.101 398.6 314.402 396.656C314.687 394.855 314.72 393.096 314.72 391.244C314.72 390.579 314.812 389.83 314.737 389.173C314.687 388.711 314.461 388.374 314.369 387.928C314.227 387.238 314.436 386.547 314.628 385.908C315.231 383.896 315.707 381.884 316.126 379.831C316.511 377.912 317.247 376.051 317.791 374.158C318.067 373.198 318.1 372.205 318.292 371.245C318.485 370.277 318.368 369.225 318.368 368.224C318.368 367.222 318.184 365.985 318.351 364.983C318.552 363.805 319.238 362.677 319.698 361.574C320.066 360.707 320.66 359.697 320.944 358.864C321.045 358.561 321.053 358.241 321.103 357.93C321.262 357.054 321.154 357.046 320.995 356.255C320.852 355.548 321.011 354.622 321.011 353.89C321.011 352.619 321.011 351.491 320.752 350.245C320.627 349.639 320.769 349.092 320.693 348.494C320.693 348.452 320.677 348.419 320.677 348.377C320.953 347.215 321.438 346.07 321.873 344.976C322.174 344.219 322.208 343.411 322.526 342.662C322.726 342.19 322.952 341.879 323.103 341.391C323.421 340.381 323.521 339.732 323.521 338.68C323.521 337.628 323.479 336.786 323.111 335.785C322.618 334.438 322.71 333.344 323.094 331.947C323.663 329.901 324.977 328.26 325.855 326.383C326.826 324.296 327.704 321.813 327.512 319.473C327.403 318.168 327.436 317.175 327.821 315.879C328.214 314.524 328.85 313.303 329.544 312.083C330.222 310.896 331.025 309.684 331.494 308.388C331.628 308.009 331.82 307.9 331.77 307.462C331.611 307.142 331.41 306.839 331.184 306.561C331.159 306.132 331.226 305.711 331.393 305.316L331.402 305.383Z" fill="#72BC59"/>
<path d="M149.772 386.599C148.751 386.482 149.931 384.537 150.165 384.26C151.119 383.123 152.365 382.037 153.67 381.33C155.578 380.295 157.56 379.1 159.71 378.688C165.056 377.669 174.066 374.748 169.381 367.661C168.955 367.013 167.984 366.458 167.934 365.616C167.859 364.354 169.557 363.891 170.293 363.285C170.854 362.822 172.259 361.551 171.933 360.667C171.665 359.951 171.28 360.583 171.331 359.648C171.347 359.329 171.607 358.201 171.958 358.327C173.782 358.975 177.337 359.615 177.588 356.787C177.68 355.777 177.011 354.792 176.358 354.093C175.848 353.538 175.388 353.184 175.296 352.401C175.204 351.661 176.308 351.088 175.756 350.289C175.631 350.104 175.421 349.977 175.221 349.876C174.325 349.43 172.477 349.75 171.799 348.967C171.197 348.26 171.832 348.1 171.648 347.326C171.372 346.19 170.854 345.474 170.218 344.498C168.829 342.368 169.574 340.029 168.729 337.857C167.993 335.963 166.043 335.921 164.73 334.616C163.743 333.64 162.68 332.756 161.693 331.763C160.823 330.879 160.062 330.358 158.974 329.878C158.096 329.482 157.192 329.145 156.364 328.649C154.055 327.252 152.332 324.685 150.265 322.951C149.044 321.932 148.274 321.057 147.789 319.517C147.045 317.177 146.877 314.677 146.091 312.354C145.104 309.441 142.276 307.203 142.151 304.038C142.075 302.169 141.858 299.804 142.41 298.02C142.703 297.069 143.004 296.126 143.129 295.133C143.238 294.325 143.531 293.34 143.439 292.532C143.347 291.732 143.037 291.168 143.146 290.31C143.255 289.51 143.648 288.778 143.79 287.978C144.183 285.689 144.501 283.096 143.991 280.799C143.481 278.467 144.56 276.7 145.497 274.637C146.057 273.4 146.2 271.986 146.476 270.665C146.861 268.804 147.112 266.919 147.388 265.034C147.697 262.929 148.375 261.069 150.525 260.388C152.181 259.857 153.344 260.303 153.428 262.071C153.478 262.98 153.888 263.737 153.695 264.663C153.511 265.572 153.068 266.263 152.524 266.986C151.219 268.737 150.115 270.008 150.525 272.247C150.7 273.198 150.91 273.728 150.542 274.663C150.232 275.454 149.755 276.262 149.521 277.07C149.37 277.592 149.379 278.139 149.22 278.661C149.119 278.981 148.944 279.216 148.86 279.561C148.668 280.378 148.793 281.312 148.793 282.145C148.793 282.869 148.76 283.61 148.793 284.334C148.835 285.31 149.27 285.243 150.048 285.655C150.784 286.042 151.219 286.438 152.106 286.27C153.043 286.093 153.495 285.495 153.854 284.662C154.574 283.004 154.942 281.371 155.109 279.578C155.218 278.433 154.632 277.524 154.825 276.354C154.984 275.378 155.243 274.503 155.745 273.653C156.841 271.75 156.64 271.069 157.862 269.343C158.857 267.946 160.597 265.951 160.413 264.411C160.162 262.281 161.501 260.674 162.689 259.091C164.019 257.332 165.968 256.221 166.788 254.075C167.39 252.501 167.457 251.205 167.014 249.605C166.729 248.595 166.37 247.569 166.345 246.516C166.311 245.456 166.353 244.387 166.353 243.326C166.353 241.071 165.725 239.471 164.881 237.367C164.161 235.6 163.099 233.706 161.66 232.401C160.622 231.459 159.167 231.088 157.912 230.541C157.309 230.28 153.152 228.277 154.758 227.031C154.758 227.031 128.832 241.332 122.976 297.06C117.12 352.789 149.789 386.642 149.789 386.642L149.772 386.599Z" fill="#72BC59"/>
<path d="M185.812 356.73C185.786 356.814 185.77 356.915 185.745 357.024C185.544 358.11 185.402 359.247 185.092 360.324C184.732 361.612 183.812 362.622 183.293 363.876C182.833 364.987 183.503 365.803 183.327 366.956C183.21 367.722 182.867 368.85 182.582 369.524C182.198 370.424 181.671 371.316 181.754 372.385C181.838 373.379 182.674 374.835 182.331 375.786C182.198 376.165 181.838 376.67 181.662 377.099C181.411 377.713 181.085 378.302 180.742 378.866C180.483 379.304 180.257 379.742 180.006 380.188C179.721 380.693 179.47 381.434 179.119 381.88C178.441 382.721 176.341 384.034 175.271 383.555C174.693 383.294 174.601 382.822 174.258 382.359C174.125 382.174 173.966 382.006 173.807 381.838C174.509 380.668 175.572 379.573 176.45 378.513C177.253 377.545 177.58 376.552 177.948 375.323C178.307 374.111 178.048 372.899 177.814 371.687C177.621 370.727 176.952 369.785 177.086 368.791C177.237 367.731 178.425 366.342 179.102 365.517C179.805 364.659 180.265 363.783 180.6 362.689C180.934 361.603 180.725 360.349 180.742 359.204C180.759 358.093 181.353 356.115 182.055 355.181C182.741 354.264 184.214 354.356 185.075 354.861C185.502 355.114 185.586 355.291 185.77 355.686C185.996 356.174 185.92 356.368 185.828 356.738L185.812 356.73Z" fill="#72BC59"/>
<g style="mix-blend-mode:multiply" opacity="0.3">
<path d="M128.482 220.584C128.482 220.584 246.842 279.267 342.756 192.219" stroke="black" stroke-width="1.86" stroke-miterlimit="10"/>
<path d="M115.021 265.81C115.021 265.81 253.476 316.775 365.586 224.281" stroke="black" stroke-width="1.86" stroke-miterlimit="10"/>
<path d="M113.105 300.917C114.586 301.91 161.451 329.594 251.25 317.987C341.04 306.38 402.219 243.977 402.219 243.977" stroke="black" stroke-width="1.86" stroke-miterlimit="10"/>
<path d="M132.514 355.651C132.514 355.651 170.185 376.197 256.528 365.768C342.864 355.348 393.811 292.188 393.811 292.188" stroke="black" stroke-width="1.86" stroke-miterlimit="10"/>
<path d="M157.102 396.547C157.102 396.547 194.622 421.099 264.786 411.31C331.495 402.001 367.945 358.359 367.945 358.359" stroke="black" stroke-width="1.86" stroke-miterlimit="10"/>
<path d="M171.121 195.484C171.121 195.484 201.84 211.603 241.745 205.745C290.033 198.657 308.354 172.422 308.354 172.422" stroke="black" stroke-width="1.86" stroke-miterlimit="10"/>
<path d="M229.038 168.992C229.038 168.992 199.716 316.087 284.679 424.724" stroke="black" stroke-width="1.86" stroke-miterlimit="10"/>
<path d="M229.039 174.617C229.039 174.617 294.225 274.484 289.264 420.038" stroke="black" stroke-width="1.86" stroke-miterlimit="10"/>
<path d="M235.623 168.992C235.623 168.992 300.717 207.213 317.424 311.945C334.13 416.677 292.862 429.404 292.862 429.404" stroke="black" stroke-width="1.86" stroke-miterlimit="10"/>
<path d="M246.84 168.992C246.84 168.992 329.62 208.232 342.754 274.078C359.644 358.718 311.541 425.532 311.541 425.532" stroke="black" stroke-width="1.86" stroke-miterlimit="10"/>
<path d="M223.61 174.617C223.61 174.617 185.813 229.066 189.762 303.514C193.71 377.962 271.538 432.394 271.538 432.394" stroke="black" stroke-width="1.86" stroke-miterlimit="10"/>
<path d="M223.609 174.617C223.609 174.617 149.513 222.678 156.783 310.147C165.082 409.929 259.482 430.155 259.482 430.155" stroke="black" stroke-width="1.86" stroke-miterlimit="10"/>
</g>
</g>
<path d="M278.658 408.223C278.658 408.223 276.935 414.468 292.863 429.408C318.789 453.733 341.661 448.641 341.661 448.641C361.948 431.007 304.851 400.488 296.377 402.743C287.902 404.999 278.658 408.223 278.658 408.223Z" fill="black"/>
<path d="M365.127 328.766C365.127 328.766 343.761 355.254 320.169 376.035C320.161 376.035 313.753 376.793 309.185 379.436C304.617 382.07 303.873 386.253 303.873 386.253C303.873 386.253 300.426 385.151 296.277 387.356C292.127 389.553 291.826 394.83 291.826 394.83C291.826 394.83 287.317 394.611 282.95 398.348C278.583 402.086 278.658 408.23 278.658 408.23C278.658 408.23 302.024 406.631 317.425 418.936C334.517 432.597 341.661 448.648 341.661 448.648C341.661 448.648 344.163 448.791 350.713 446.594C357.272 444.397 358.552 440.34 358.552 440.34C358.552 440.34 360.476 443.64 365.52 440.34C370.565 437.041 370.565 430.232 370.565 430.232C370.565 430.232 371.661 431.991 375.81 430.232C379.96 428.473 381.725 418.566 381.725 418.566C426.708 379.882 433.601 352.838 433.601 352.838" fill="#0F77F5"/>
<path d="M358.553 440.328C358.553 440.328 356.16 428.477 332.803 410.734" stroke="black" stroke-width="1.86" stroke-miterlimit="10"/>
<path d="M291.826 394.813C291.826 394.813 296.821 394.662 306.826 398.256" stroke="black" stroke-width="1.86" stroke-miterlimit="10"/>
<path d="M303.881 386.25C303.881 386.25 323.356 389.878 341.661 400.904" stroke="black" stroke-width="1.86" stroke-miterlimit="10"/>
<path d="M370.565 430.213C370.565 430.213 367.377 422.713 358.543 414.086" stroke="black" stroke-width="1.86" stroke-miterlimit="10"/>
<path d="M381.726 418.541C381.726 418.541 378.789 413.474 374.506 409.703" stroke="black" stroke-width="1.86" stroke-miterlimit="10"/>
<path d="M320.17 376.031C320.17 376.031 324.704 376.444 332.802 380.517" stroke="black" stroke-width="1.86" stroke-miterlimit="10"/>
<path d="M294.043 409.242C294.043 409.242 274.693 417.171 256.07 437.06L327.615 488.218C327.615 488.218 342.74 471.208 326.042 450.637L336.491 439.695C336.491 439.695 330.442 429.333 317.425 418.922C306.6 410.261 294.043 409.242 294.043 409.242Z" fill="#FF5485"/>
<mask id="mask7_8531_1186" style="mask-type:luminance" maskUnits="userSpaceOnUse" x="256" y="409" width="81" height="80">
<path d="M294.043 409.242C294.043 409.242 274.693 417.171 256.07 437.06L327.615 488.218C327.615 488.218 342.74 471.208 326.042 450.637L336.491 439.695C336.491 439.695 330.442 429.333 317.425 418.922C306.6 410.261 294.043 409.242 294.043 409.242Z" fill="white"/>
</mask>
<g mask="url(#mask7_8531_1186)">
<path d="M335.538 452.934C335.538 452.934 329.281 449.231 319.543 450.721" stroke="black" stroke-width="1.86" stroke-miterlimit="10"/>
<path d="M322.972 457.58C328.243 455.526 333.873 456.983 339.102 458.38C340.072 458.641 340.482 457.126 339.511 456.873C334.032 455.409 328.067 453.919 322.554 456.074C321.634 456.435 322.035 457.951 322.964 457.58H322.972Z" fill="black"/>
<path d="M326.963 462.476C331.656 460.733 336.843 460.868 341.452 462.821C341.845 462.989 342.306 462.644 342.406 462.274C342.531 461.827 342.247 461.474 341.862 461.314C337.035 459.269 331.455 459.151 326.544 460.969C325.616 461.314 326.017 462.829 326.954 462.476H326.963Z" fill="black"/>
<path d="M333.321 483.008C331.279 472.967 317.392 458.869 296.126 444.913C271.648 428.846 259.476 430.167 259.476 430.167L240 451.655L324.193 510.002L333.304 483.008H333.321Z" stroke="black" stroke-width="1.86" stroke-miterlimit="10"/>
<path d="M275.58 416.574C279.026 416.498 281.059 419.991 282.657 422.558C283.519 423.939 284.255 425.386 284.447 427.028C284.631 428.534 284.422 430.058 283.971 431.506C283.452 433.147 282.599 434.687 281.503 436.017C280.867 436.791 281.963 437.902 282.607 437.128C284.807 434.451 286.296 430.967 286.037 427.44C285.903 425.597 285.276 423.922 284.339 422.339C283.402 420.757 282.339 419.032 281.043 417.634C279.62 416.111 277.696 414.975 275.571 415.017C274.567 415.042 274.567 416.599 275.571 416.582L275.58 416.574Z" fill="black"/>
</g>
<path d="M327.385 488.542C330.868 483.659 317.769 468.202 298.127 454.017C278.485 439.832 259.738 432.291 256.255 437.174C252.771 442.057 265.87 457.515 285.512 471.699C305.154 485.884 323.901 493.425 327.385 488.542Z" fill="#FFA9C3"/>
<mask id="mask8_8531_1186" style="mask-type:luminance" maskUnits="userSpaceOnUse" x="255" y="435" width="73" height="56">
<path d="M327.385 488.542C330.868 483.659 317.769 468.202 298.127 454.017C278.485 439.832 259.738 432.291 256.255 437.174C252.771 442.057 265.87 457.515 285.512 471.699C305.154 485.884 323.901 493.425 327.385 488.542Z" fill="white"/>
</mask>
<g mask="url(#mask8_8531_1186)">
<path d="M249.352 456.032L273.663 430.133" stroke="black" stroke-width="1.86" stroke-miterlimit="10"/>
<path d="M257.189 460.899L281.5 435" stroke="black" stroke-width="1.86" stroke-miterlimit="10"/>
<path d="M265.029 465.758L289.332 439.859" stroke="black" stroke-width="1.86" stroke-miterlimit="10"/>
<path d="M272.867 470.625L297.17 444.727" stroke="black" stroke-width="1.86" stroke-miterlimit="10"/>
<path d="M280.705 475.493L305.008 449.594" stroke="black" stroke-width="1.86" stroke-miterlimit="10"/>
<path d="M288.545 480.352L312.848 454.453" stroke="black" stroke-width="1.86" stroke-miterlimit="10"/>
<path d="M296.375 485.219L320.686 459.32" stroke="black" stroke-width="1.86" stroke-miterlimit="10"/>
<path d="M304.215 490.086L328.526 464.188" stroke="black" stroke-width="1.86" stroke-miterlimit="10"/>
<path d="M312.053 494.954L336.364 469.055" stroke="black" stroke-width="1.86" stroke-miterlimit="10"/>
</g>
<path d="M283.778 191.604C283.778 191.604 255 200.299 241.749 200.493C221.729 200.779 204.705 200.088 199.719 185.788L235.591 151.54L275.73 148.703" fill="#FF5485"/>
<path d="M293.055 128.303C293.055 128.303 302.391 124.001 298.861 115.054C297.163 110.736 295.565 109.213 294.461 107.134C293.356 105.055 291.323 100.644 291.374 97.7322C291.424 94.8199 292.536 90.7461 290.679 89.6435C288.404 88.2968 287.651 90.8051 287.651 90.8051C287.651 90.8051 288.22 86.3441 287.55 84.8795C286.53 82.6575 284.974 83.1625 284.974 83.1625C284.974 83.1625 285.451 81.4707 283.844 80.8647C283.844 80.8647 284.045 79.4085 282.456 79.1645C279.812 78.7604 276.315 81.3781 274.073 90.7967C271.831 100.224 273.738 106.738 274.918 109.777L264.913 119.465C264.913 119.465 261.892 139.068 268.711 142.291C275.52 145.515 285.258 138.361 285.258 138.361L293.055 128.294V128.303Z" fill="#FFBC8A"/>
<path d="M287.651 90.8047C287.651 90.8047 287.149 91.8905 286.689 94.525C286.203 97.311 286.705 102.428 288.194 105.98" stroke="black" stroke-width="1.86" stroke-miterlimit="10"/>
<path d="M284.974 83.1641C284.974 83.1641 283.242 83.1809 282.447 86.2867C281.527 89.8724 280.272 97.7254 282.907 105.031" stroke="black" stroke-width="1.86" stroke-miterlimit="10"/>
<path d="M283.844 80.8615C283.844 80.8615 281.669 79.4138 279.284 85.272C277.344 90.0444 275.771 98.2425 278.239 105.582" stroke="black" stroke-width="1.86" stroke-miterlimit="10"/>
<path d="M293.055 128.303C293.055 128.303 302.391 124.001 298.861 115.054C297.162 110.736 295.565 109.213 294.46 107.134C293.356 105.055 291.323 100.644 291.373 97.7322C291.424 94.8199 292.536 90.7461 290.679 89.6435C288.403 88.2968 287.651 90.8051 287.651 90.8051C287.651 90.8051 288.219 86.3441 287.55 84.8795C286.53 82.6575 284.973 83.1625 284.973 83.1625C284.973 83.1625 285.45 81.4707 283.844 80.8647C283.844 80.8647 284.045 79.4085 282.455 79.1645C279.812 78.7604 276.315 81.3781 274.073 90.7967C271.831 100.224 273.738 106.738 274.918 109.777" stroke="black" stroke-width="1.86" stroke-miterlimit="10"/>
<path d="M199.717 185.783C199.717 185.783 193.686 166.803 217.963 149.953C234.921 138.186 250.883 125.156 260.763 119.391C260.763 119.391 270.383 136.519 285.249 138.371C285.249 138.371 255.333 170.035 243.68 183.645" fill="#FF5485"/>
<path d="M260.77 119.391C260.77 119.391 270.391 136.519 285.257 138.371C285.257 138.371 255.341 170.035 243.688 183.645" stroke="black" stroke-width="1.86" stroke-miterlimit="10"/>
<path d="M274.6 126.862C271.915 124.101 269.865 120.709 268.409 117.031C267.598 114.985 266.159 112.763 263.633 113.79C258.044 116.063 260.855 123.083 262.997 126.87C265.314 130.969 268.535 134.487 272.458 137.08C276.29 139.613 282.129 142.744 286.705 140.564C288.872 139.529 290.319 137.055 288.261 135.102C286.505 133.435 283.936 132.821 281.778 131.878C279.009 130.666 276.625 128.949 274.592 126.87L274.6 126.862Z" fill="#FF5485" stroke="black" stroke-width="1.86" stroke-miterlimit="10"/>
<path d="M283.175 327.365C283.175 327.365 242.157 286.644 274.968 280.921C306.022 275.5 283.175 327.365 283.175 327.365Z" fill="#FF5485" stroke="black" stroke-width="1.86" stroke-miterlimit="10"/>
<path d="M276.857 300.285C280.036 300.285 282.613 297.692 282.613 294.494C282.613 291.296 280.036 288.703 276.857 288.703C273.678 288.703 271.102 291.296 271.102 294.494C271.102 297.692 273.678 300.285 276.857 300.285Z" fill="white"/>
<path d="M341.66 249.782L322.853 261.633C322.853 261.633 315.885 260.783 306.908 259.444C297.932 258.106 298.885 265.984 308.498 267.87C308.498 267.87 289.499 280.967 284.036 284.535C278.565 288.113 277.653 291.101 279.594 293.44C281.535 295.78 284.571 294.821 289.499 291.883C294.418 288.946 301.772 284.14 301.772 284.14C301.772 284.14 297.053 287.161 299.864 290.537C302.675 293.903 306.833 291.42 306.833 291.42C306.833 291.42 304.892 294.594 307.251 297.203C309.61 299.812 313.333 297.144 313.333 297.144C313.333 297.144 311.066 300.081 314.044 302.447C317.022 304.812 320.335 303.305 328.216 298.583C335.218 294.383 338.054 289.156 338.054 289.156L361.989 277.6C361.989 277.6 368.263 270.083 364.08 261.246C359.897 252.416 341.66 249.773 341.66 249.773V249.782Z" fill="#FFBC8A"/>
<path d="M301.764 284.146L306.842 280.914" stroke="black" stroke-width="1.86" stroke-miterlimit="10"/>
<path d="M306.826 291.426L311.544 288.219" stroke="black" stroke-width="1.86" stroke-miterlimit="10"/>
<path d="M313.326 297.143L317.417 294.172" stroke="black" stroke-width="1.86" stroke-miterlimit="10"/>
<path d="M322.853 261.637C322.853 261.637 315.885 260.787 306.908 259.449C297.932 258.111 298.885 265.989 308.498 267.874C308.498 267.874 289.499 280.971 284.036 284.54C278.565 288.117 277.653 291.105 279.594 293.445C281.535 295.785 284.571 294.825 289.499 291.888C294.418 288.95 301.772 284.144 301.772 284.144C301.772 284.144 297.053 287.166 299.864 290.541C302.675 293.908 306.833 291.425 306.833 291.425C306.833 291.425 304.892 294.598 307.251 297.207C309.61 299.817 313.333 297.148 313.333 297.148C313.333 297.148 311.066 300.086 314.044 302.451C317.022 304.816 320.335 303.31 328.216 298.588C335.218 294.388 338.054 289.161 338.054 289.161" stroke="black" stroke-width="1.86" stroke-miterlimit="10"/>
<path d="M301.764 284.154L306.842 280.922" stroke="black" stroke-width="1.86" stroke-miterlimit="10"/>
<path d="M306.826 291.433L311.544 288.227" stroke="black" stroke-width="1.86" stroke-miterlimit="10"/>
<path d="M313.326 297.151L317.417 294.18" stroke="black" stroke-width="1.86" stroke-miterlimit="10"/>
<path d="M400.43 153.129C396.54 149.451 387.722 146.219 387.722 146.219C386.526 146.555 379.44 152.212 376.219 156.403C370.606 163.692 369.811 176.865 373.283 193.253C376.755 209.649 381.239 225.33 381.239 225.33L341.66 249.772C341.66 249.772 363.06 256.632 361.989 277.599C361.989 277.599 387.337 268.079 401.869 259.746C430.103 243.544 422.767 222.207 420.098 208.302C418.517 200.062 416.743 192.31 415.07 183.565C412.887 172.16 409.122 161.344 400.438 153.129H400.43Z" fill="#FF5485"/>
<path d="M381.238 225.338C381.238 225.338 392.716 216.601 403.316 222.821" stroke="black" stroke-width="1.86" stroke-miterlimit="10"/>
<path d="M376.219 156.414C370.606 163.703 369.811 176.876 373.283 193.263C376.755 209.66 381.239 225.34 381.239 225.34L341.66 249.783C341.66 249.783 363.06 256.643 361.989 277.609C361.989 277.609 376.253 272.256 389.504 266.061" stroke="black" stroke-width="1.86" stroke-miterlimit="10"/>
<path d="M363.118 256.828C358.333 250.532 350.821 243.243 341.183 244.404C339.025 244.665 335.904 246.492 334.967 249.042C334.223 251.079 335.277 253.798 335.277 253.798L338.046 252.047C338.046 252.047 348.328 255.186 353.514 263.258C358.04 270.312 358.542 279.259 358.542 279.259L355.932 280.513C355.932 280.513 357.747 283.164 359.621 283.375C365.578 284.048 367.427 277.836 367.803 274.621C368.481 268.763 366.64 261.449 363.118 256.811V256.828Z" fill="#FF5485"/>
<path d="M355.932 280.53C355.932 280.53 357.747 283.181 359.621 283.391C365.578 284.065 367.427 277.853 367.803 274.638C368.481 268.78 366.64 261.465 363.118 256.828C358.333 250.532 350.821 243.243 341.183 244.404C339.025 244.665 335.904 246.492 334.967 249.042C334.223 251.079 335.277 253.798 335.277 253.798" stroke="black" stroke-width="1.86" stroke-miterlimit="10"/>
<path d="M338.045 252.055C338.045 252.055 348.327 255.194 353.513 263.266C358.039 270.319 358.541 279.267 358.541 279.267" stroke="black" stroke-width="1.86" stroke-miterlimit="10"/>
</g>
<defs>
<filter id="filter0_d_8531_1186" x="0.978516" y="0.789062" width="505.658" height="573.242" filterUnits="userSpaceOnUse" color-interpolation-filters="sRGB">
<feFlood flood-opacity="0" result="BackgroundImageFix"/>
<feColorMatrix in="SourceAlpha" type="matrix" values="0 0 0 0 0 0 0 0 0 0 0 0 0 0 0 0 0 0 127 0" result="hardAlpha"/>
<feMorphology radius="12" operator="erode" in="SourceAlpha" result="effect1_dropShadow_8531_1186"/>
<feOffset dy="32"/>
<feGaussianBlur stdDeviation="32"/>
<feComposite in2="hardAlpha" operator="out"/>
<feColorMatrix type="matrix" values="0 0 0 0 0 0 0 0 0 0 0 0 0 0 0 0 0 0 0.14 0"/>
<feBlend mode="normal" in2="BackgroundImageFix" result="effect1_dropShadow_8531_1186"/>
<feBlend mode="normal" in="SourceGraphic" in2="effect1_dropShadow_8531_1186" result="shape"/>
</filter>
</defs>
</svg>
